<?xml version="1.0" standalone="no"?>
<!DOCTYPE svg PUBLIC "-//W3C//DTD SVG 20010904//EN"
 "http://www.w3.org/TR/2001/REC-SVG-20010904/DTD/svg10.dtd">
<svg version="1.0" xmlns="http://www.w3.org/2000/svg"
 width="260.000000pt" height="260.000000pt" viewBox="0 0 260.000000 260.000000"
 preserveAspectRatio="xMidYMid meet">
<metadata>
Created by potrace 1.11, written by Peter Selinger 2001-2013
</metadata>
<g transform="translate(0.000000,260.000000) scale(0.100000,-0.100000)"
fill="#000000" stroke="none">
<path d="M1616 2149 c-107 -94 -212 -289 -238 -443 -2 -15 -18 -6 -88 52 -114
95 -180 134 -238 139 -86 8 -153 -53 -299 -272 -44 -66 -122 -183 -175 -260
-156 -230 -240 -388 -474 -890 l-84 -179 0 -148 0 -148 158 0 157 1 110 95
c159 139 388 322 474 378 225 148 442 268 595 331 131 54 151 63 212 99 212
124 225 250 45 462 l-60 71 67 -14 c95 -21 208 -13 256 17 48 29 60 60 44 112
-15 51 -56 85 -114 94 l-46 7 52 30 c106 61 220 202 220 273 0 20 -9 39 -26
55 -23 21 -34 24 -107 24 -72 -1 -89 -4 -143 -32 -70 -37 -167 -108 -266 -195
-38 -33 -68 -58 -68 -55 0 3 32 76 71 162 82 183 88 205 65 240 -22 34 -57 32
-100 -6z m459 -210 c10 -15 -37 -82 -87 -121 -70 -57 -129 -86 -254 -128
l-119 -40 45 41 c197 175 299 241 402 258 4 0 10 -4 13 -10z m-96 -403 c9 -11
8 -15 -5 -20 -26 -10 -126 -7 -189 6 -80 16 -49 26 81 27 75 1 105 -3 113 -13z"/>
</g>
</svg>
